<?xml version="1.0" encoding="utf-8"?>
<!-- Generator: Adobe Illustrator 18.1.1, SVG Export Plug-In . SVG Version: 6.00 Build 0)  -->
<svg version="1.1" id="Layer_1" xmlns="http://www.w3.org/2000/svg" xmlns:xlink="http://www.w3.org/1999/xlink" x="0px" y="0px"
	 width="56.3px" height="49.4px" viewBox="0 0 56.3 49.4" enable-background="new 0 0 56.3 49.4" xml:space="preserve">
<path opacity="0.3" fill="#898989" d="M56.3,11.5c0-3-2.4-5.5-5.3-5.5H28V4.2C28,1.8,26,0,23.6,0H4.3C1.8,0,0,1.8,0,4.2v40.2
	c0,2.9,2.2,5,5.2,5H51c3,0,5.3-2.2,5.3-5V11.5z M4.3,3.1h19.3c0.6,0,1.3,0.3,1.3,1.1v4.9H51c1.2,0,2.3,1.2,2.3,2.4v3.2H3.1V4.2
	C3.1,3.4,3.7,3.1,4.3,3.1z M53.2,44.4c0,1.3-1.2,2-2.3,2H5.2c-1.2,0-2.1-0.8-2.1-2V18.1h50.2V44.4z"/>
</svg>
